# xmcd CD database file
#
# Track frame offsets:
#	150
#	15980
#	33371
#	45594
#	61020
#	75785
#	88998
#	101612
#	117512
#	134235
#	146612
#	161466
#	181302
#	225046
#	243443
#
# Disc length: 3456 seconds
#
# Revision: 1
# Processed by: cddbd v1.5PL3 Copyright (c) Steve Scherf et al.
# Submitted via: CDex 1.51
#
DISCID=b30d7e0f
DTITLE=鄧麗君 - 思君集CD2
DYEAR=2004
DGENRE=Pop
TTITLE0=甜蜜蜜
TTITLE1=難忘的一天
TTITLE2=奈何
TTITLE3=你怎麼說
TTITLE4=原鄉情濃
TTITLE5=忘記他《粵語》
TTITLE6=一水隔天涯《粵語》
TTITLE7=勢不兩立
TTITLE8=碎心戀《閩南語》
TTITLE9=雨夜花《閩南語》
TTITLE10=難忘的初戀情人《閩南語》
TTITLE11=恰似你的溫柔
TTITLE12=Medley_嘆十聲_天涯歌女_四季歌《現場演繹》
TTITLE13=但願人長久
TTITLE14=幾多愁
EXTD=YEAR: 2004
EXTT0=
EXTT1=
EXTT2=
EXTT3=
EXTT4=
EXTT5=
EXTT6=
EXTT7=
EXTT8=
EXTT9=
EXTT10=
EXTT11=
EXTT12=
EXTT13=
EXTT14=
PLAYORDER=
